<?xml version="1.0" encoding="UTF-8"?>
<svg id="Layer_1" data-name="Layer 1" xmlns="http://www.w3.org/2000/svg" viewBox="0 0 1920 1920">
  <defs>
    <style>
      .cls-1 {
        fill: #fff;
      }

      .cls-2 {
        fill: #d8d8d8;
      }

      .cls-3 {
        stroke-width: 13.12px;
      }

      .cls-3, .cls-4, .cls-5 {
        fill: none;
      }

      .cls-3, .cls-4, .cls-5, .cls-6 {
        stroke: #fff;
        stroke-linecap: round;
        stroke-linejoin: round;
      }

      .cls-7, .cls-6 {
        fill: #dd690a;
      }

      .cls-8 {
        fill: #2fb228;
      }

      .cls-4 {
        stroke-width: 10.65px;
      }

      .cls-5, .cls-6 {
        stroke-width: 11.25px;
      }

      .cls-9 {
        fill: #5086ff;
      }
    </style>
  </defs>
  <rect class="cls-2" width="1920" height="1920"/>
  <g>
    <g>
      <rect class="cls-9" x="201.51" y="219.02" width="599.96" height="599.96"/>
      <path class="cls-1" d="m427.03,670.79c62.52-43.51,61.94-127.23,16.24-173.2-43.49-43.75-114.15-44.57-159.16-.71-21.92,21.35-33.36,47.84-33.72,78.42-.47,40.18,17.16,71.58,49.22,95.46-61.63,30.41-94.7,79.11-98.15,148.01l290.94.19,32.52.02c-3.59-69.31-36.71-117.98-97.89-148.19Zm-144.53-93.83c.17-44.69,36.26-80.52,81-80.44,44.39.09,80.26,36.09,80.28,80.57.02,44.79-35.81,80.59-80.67,80.58-44.73,0-80.79-36.1-80.61-80.71Z"/>
      <path class="cls-1" d="m527.1,528.91c6.12-14.22,15.21-27.26,27.01-38.76,11.88-11.57,25.65-20.49,40.56-26.45-16.1-16.26-29.97-28-39.7-32.8,52.25-36.36,51.77-106.33,13.57-144.75-36.34-36.56-95.4-37.24-133.02-.6-18.32,17.84-27.88,39.99-28.18,65.54-.39,33.58,14.34,59.82,41.14,79.77-9.78,4.83-23.68,16.56-39.8,32.8.3.12.59.24.89.36,15.14,6.18,28.71,15.25,40.34,26.95,12.5,12.57,22.28,28.28,28.3,45.42,5.92,16.88,8.21,35.18,6.6,52.92-2.84,31.34-17.14,59.26-40.68,79.98,23.73,13.62,42.95,30.43,57.33,50.13,7.87-10.74,17.2-20.67,27.82-29.59,8.96-7.52,19.02-14.46,30.02-20.75-28.15-25.19-42.18-56.72-41.74-93.9.19-16.45,3.4-32.02,9.54-46.27Zm-25.54-108.97c-37.39,0-67.52-30.17-67.37-67.45.15-37.35,30.3-67.3,67.7-67.22,37.1.07,67.07,30.16,67.09,67.33.02,37.44-29.93,67.35-67.41,67.34Z"/>
      <path class="cls-1" d="m703.58,670.79c62.52-43.51,61.94-127.23,16.24-173.2-43.49-43.75-114.15-44.57-159.16-.71-21.92,21.35-33.36,47.84-33.72,78.42-.47,40.18,17.16,71.58,49.22,95.46-61.63,30.41-94.7,79.11-98.15,148.01l290.94.19,32.52.02c-3.59-69.31-36.71-117.98-97.89-148.19Zm-144.53-93.83c.17-44.69,36.26-80.52,81-80.44,44.39.09,80.26,36.09,80.28,80.57.02,44.79-35.81,80.59-80.67,80.58-44.73,0-80.79-36.1-80.61-80.71Z"/>
      <path class="cls-3" d="m317.28,607.28s45.15,55.78,90.06,0"/>
      <path class="cls-3" d="m594.76,607.28s45.15,55.78,90.06,0"/>
      <path class="cls-4" d="m469.39,372.13s32.06,39.61,63.95,0"/>
    </g>
    <g>
      <rect class="cls-7" x="1118.53" y="224" width="600" height="600"/>
      <g>
        <path class="cls-5" d="m1369.47,421.5l242.81,30.63-188.91,87.19-198.59-32.5,144.69-85.31Zm53.91,117.81v166.09m236.72-335.16l-270.94-31.88-19.69,83.13-35.94-50.63-180.31,80.63,71.56,55.31v151.95l198.75,46.48,188.75-85.55v-167.58l47.81-81.88Z"/>
        <polygon class="cls-6" points="1612.28 452.12 1701.34 444.62 1487.28 548.69 1423.53 539.31 1612.28 452.12"/>
      </g>
    </g>
  </g>
  <g>
    <rect class="cls-8" x="660" y="1034" width="600" height="600"/>
    <path class="cls-1" d="m1155.94,1136.19c-371.91,112.63-400.63,398.13-400.63,398.13,78.44-101.25,521.04-434.59,400.63-398.13Z"/>
    <path class="cls-8" d="m929.96,1314.01c52.47-73.29,129.07-125.87,209.81-163.92,8.41-4.01,17.62-8.16,26.1-12.07,2.9-1.34,5.8-2.68,8.67-4.09-21.91,13.15-44.83,24.48-66.87,37.37-16.57,9.47-32.93,19.38-48.85,29.89-29.15,19.11-57.18,40.61-82.63,64.44-6.98,6.4-13.79,13.33-20.41,20.09-8.78,9.23-17.24,18.77-25.43,28.58,0,0-.39-.29-.39-.29h0Z"/>
    <path class="cls-8" d="m939.53,1263.12c5,12.33,6.12,27.67.58,40,0,0-1.78-.78-1.78-.78,3.55-9.27,3.47-19.43,2.17-29.15-.44-3.28-.95-6.58-1.59-9.86l.62-.21h0Z"/>
    <path class="cls-8" d="m997.8,1241.22c18.86-10.92,56.4-29.29,77.12-17.19-2.95-1.54-6.29-2.61-9.63-3-16.71-1.71-33.51,5.68-48.21,12.9-5.99,3.07-11.9,6.43-17.5,10.07,0,0-1.78-2.78-1.78-2.78h0Z"/>
  </g>
</svg>