<?xml version="1.0" encoding="UTF-8"?>
<svg id="Layer_1" data-name="Layer 1" xmlns="http://www.w3.org/2000/svg" viewBox="0 0 1920 1920">
  <defs>
    <style>
      .cls-1 {
        fill: #fff;
      }

      .cls-2 {
        fill: #2fb228;
      }
    </style>
  </defs>
  <rect class="cls-2" width="1920" height="1920"/>
  <path class="cls-1" d="m1587,327C396.87,687.4,305,1601,305,1601,556,1277,1972.34,210.31,1587,327Z"/>
  <path class="cls-2" d="m863.88,896.03c71.39-100.28,158.33-189,253.66-266.66,131.09-107.07,278.34-193.31,431.6-264.44,15.54-7.18,40.13-18.59,55.73-25.65,12.33-5.65,29.43-13.58,41.66-19.49-68.99,41.41-144.61,79.08-213.98,119.6-48.54,27.78-96.62,56.89-143.57,87.26-37.88,24.63-76.51,51.28-112.9,78.19-40.69,30.14-80.73,62.29-119.04,95.41-3.41,3.11-25.27,22.37-28.48,25.39-8.53,8.03-19.42,17.99-27.96,25.98-7.74,7.53-19.63,19.07-27.37,26.62-8.78,9.05-17.9,18.29-26.75,27.27-28.16,29.54-55.16,60.12-81.36,91.45,0,0-1.23-.94-1.23-.94h0Z"/>
  <path class="cls-2" d="m894.49,733.17c15.79,36.93,19.61,91.25,1.86,128,0,0-5.69-2.5-5.69-2.5,1.84-4.88,3.46-9.84,4.76-14.89,6.49-25.59,5.65-52.39,2.2-78.39-1.37-10.52-3.1-21.05-5.11-31.55l1.98-.66h0Z"/>
  <path class="cls-2" d="m1080.96,663.11c56.68-33.18,149.94-76.87,216.19-66.06,10.64,1.89,21.68,5.28,30.55,11.14-9.49-5.32-20.07-8.36-30.76-9.74-50.8-5.96-109.47,18.87-154.29,41.32-19.14,9.82-38,20.49-56,32.23,0,0-5.69-8.89-5.69-8.89h0Z"/>
</svg>