<?xml version="1.0" encoding="UTF-8" standalone="no"?><!DOCTYPE svg PUBLIC "-//W3C//DTD SVG 1.1//EN" "http://www.w3.org/Graphics/SVG/1.1/DTD/svg11.dtd"><svg width="100%" height="100%" viewBox="0 0 1501 427" version="1.1" xmlns="http://www.w3.org/2000/svg" xmlns:xlink="http://www.w3.org/1999/xlink" xml:space="preserve" xmlns:serif="http://www.serif.com/" style="fill-rule:evenodd;clip-rule:evenodd;stroke-linejoin:round;stroke-miterlimit:2;"><g><path d="M152.427,0.467c10.548,0 19.459,2.916 26.741,8.732c7.274,5.824 11.273,14.556 12.007,26.196c-0,9.465 -3.368,17.463 -10.097,24.012c-6.736,6.549 -15.195,10.19 -25.376,10.915c-7.641,0.367 -13.644,3.096 -18.01,8.186c-4.366,5.1 -6.549,11.102 -6.549,18.01l-0,53.482c16.731,0.733 28.285,4.46 34.655,11.188c6.361,6.737 9.55,15.008 9.55,24.831c-0,9.823 -3.095,18.01 -9.277,24.558c-6.191,6.549 -17.831,10.19 -34.928,10.915l-0,109.695c-0,10.556 -1.731,20.738 -5.184,30.561c-3.462,9.823 -8.28,18.64 -14.463,26.468c-6.19,7.82 -13.558,14.82 -22.102,21.012c-8.553,6.182 -18.282,10.915 -29.197,14.189c-6.549,2.183 -13.286,3.181 -20.193,3.001c-6.915,-0.187 -13.191,-1.637 -18.828,-4.365c-5.645,-2.729 -10.463,-6.643 -14.462,-11.734c-4.008,-5.099 -6.191,-11.648 -6.549,-19.647c-0,-9.465 3.36,-17.557 10.096,-24.285c6.728,-6.736 14.821,-10.284 24.286,-10.642c7.274,0 13.371,-2.644 18.282,-7.913c4.912,-5.27 7.368,-11.189 7.368,-17.737l-0,-108.603c-17.106,0 -28.566,-3.274 -34.382,-9.823c-5.824,-6.549 -9.099,-15.093 -9.823,-25.65c-0,-9.457 3.087,-17.549 9.277,-24.286c6.183,-6.727 17.822,-10.641 34.928,-11.733l-0,-54.028c-0,-12.364 2.362,-24.286 7.094,-35.746c4.725,-11.461 11.273,-21.642 19.647,-30.561c8.365,-8.912 18.189,-16.007 29.47,-21.284c11.273,-5.27 23.279,-7.914 36.019,-7.914" style="fill:#fff;fill-rule:nonzero;"/><path d="M249.569,84.512c9.457,-0 17.822,3.547 25.104,10.642c7.274,7.094 10.915,15.741 10.915,25.922l-0,96.051c-0,8.374 1.637,16.287 4.912,23.74c3.274,7.461 7.64,13.916 13.097,19.374c5.458,5.457 11.913,9.823 19.374,13.097c7.453,3.275 15.366,4.912 23.74,4.912c7.999,-0 15.639,-1.45 22.921,-4.365c7.274,-2.909 13.729,-6.908 19.374,-12.007c5.637,-5.091 10.096,-11.273 13.371,-18.555c3.274,-7.274 4.911,-15.093 4.911,-23.467l-0,-99.325c-0,-9.09 3.454,-17.276 10.369,-24.559c6.908,-7.273 15.281,-11.094 25.104,-11.46c9.824,-0 18.283,3.547 25.377,10.642c7.095,7.094 10.821,15.008 11.188,23.74l-0,98.233c-0,18.197 -3.462,35.294 -10.369,51.3c-6.915,16.014 -16.372,30.015 -28.378,42.022c-12.007,12.006 -26.017,21.471 -42.023,28.379c-16.014,6.915 -33.29,10.369 -51.845,10.369c-17.464,0.724 -34.203,-2.269 -50.208,-9.005c-16.014,-6.728 -30.11,-16.006 -42.295,-27.833c-12.194,-11.819 -21.924,-25.65 -29.197,-41.477c-7.283,-15.826 -10.915,-32.471 -10.915,-49.935l-0,-100.416c-0,-9.457 3.359,-17.736 10.096,-24.831c6.728,-7.095 15.187,-10.822 25.377,-11.188" style="fill:#fff;fill-rule:nonzero;"/><path d="M675.087,161.181c-24.124,18.303 -57.962,23.196 -85.79,20.996l0.583,0.492c-9.048,6.857 -9.048,48.906 -9.048,48.906l-0,85.42c-0.731,9.467 -4.278,17.284 -10.642,23.467c-6.363,6.191 -14.829,9.278 -25.372,9.278c-9.829,0 -18.015,-3.177 -24.56,-9.549c-6.552,-6.364 -10.189,-14.821 -10.912,-25.381l-0,-83.235c-0,-56.755 30.808,-79.123 37.549,-83.335c-0,-0.008 0.009,-0.008 0.017,-0.008c10.149,-9.213 27.376,-16.792 28.722,-17.383c15.191,-6.577 26.727,-3.991 32.081,3.087c4.04,5.354 -25.479,8.967 -25.372,13.984c0.106,4.943 64.522,17.309 78.678,-12.35c11.348,-23.771 23.106,-24.821 24.24,-22.383c8.49,18.319 0.18,40.144 -10.174,47.994" style="fill:#fff;fill-rule:nonzero;"/><path d="M744.556,86.694c9.457,0 17.37,3.462 23.74,10.369c6.361,6.916 9.908,15.281 10.642,25.105l0,193.192c0,9.823 -3.096,18.009 -9.278,24.558c-6.191,6.549 -14.556,10.182 -25.104,10.915c-9.465,0 -17.464,-2.907 -24.013,-8.732c-6.548,-5.815 -10.556,-14.001 -12.006,-24.558l0,-197.559c0.725,-9.456 4.545,-17.276 11.461,-23.466c6.907,-6.183 15.093,-9.457 24.558,-9.824m0,-83.498c9.457,0 17.549,3.547 24.285,10.641c6.728,7.095 10.097,15.375 10.097,24.832c0,9.465 -3.369,17.736 -10.097,24.831c-6.736,7.095 -14.828,10.642 -24.285,10.642c-10.557,-0.358 -19.195,-3.726 -25.923,-10.096c-6.736,-6.361 -10.096,-15.366 -10.096,-27.014c0.358,-9.457 4.093,-17.464 11.188,-24.013c7.094,-6.548 15.366,-9.823 24.831,-9.823" style="fill:#fff;fill-rule:nonzero;"/><path d="M898.455,3.196c9.457,-0 17.549,3.547 24.286,10.642c6.728,7.095 10.096,15.375 10.096,24.831c0,9.465 -3.368,17.736 -10.096,24.831c-6.737,7.095 -14.829,10.643 -24.286,10.643c-10.557,-0.359 -19.195,-3.727 -25.923,-10.097c-6.736,-6.361 -10.096,-15.366 -10.096,-27.014c0.358,-9.457 4.093,-17.464 11.188,-24.012c7.095,-6.549 15.366,-9.824 24.831,-9.824m0,83.498c9.457,-0 17.37,3.463 23.74,10.369c6.361,6.916 9.909,15.281 10.642,25.105l0,209.019c0.358,10.557 -1.186,20.738 -4.639,30.562c-3.462,9.822 -8.28,18.64 -14.462,26.468c-6.191,7.819 -13.558,14.82 -22.102,21.011c-8.554,6.182 -18.283,10.915 -29.198,14.189c-6.549,2.183 -13.285,3.181 -20.192,3.001c-6.916,-0.187 -13.192,-1.636 -18.828,-4.365c-5.645,-2.729 -10.463,-6.643 -14.462,-11.734c-4.008,-5.099 -6.191,-11.648 -6.549,-19.646c0,-9.466 3.359,-17.558 10.096,-24.286c6.728,-6.736 14.82,-10.284 24.285,-10.642c7.274,-0 13.371,-2.644 18.282,-7.913c4.912,-5.27 7.368,-11.188 7.368,-17.737l0,-210.11c0.725,-9.457 4.545,-17.277 11.461,-23.467c6.907,-6.182 15.093,-9.456 24.558,-9.824" style="fill:#fff;fill-rule:nonzero;"/><path d="M1095.47,278.249c8.365,0 16.278,-1.543 23.74,-4.639c7.453,-3.086 13.916,-7.367 19.373,-12.825c5.458,-5.457 9.824,-11.912 13.098,-19.374c3.275,-7.452 4.912,-15.553 4.912,-24.285c-0,-7.999 -1.637,-15.733 -4.912,-23.194c-3.274,-7.453 -7.734,-14.001 -13.371,-19.646c-5.644,-5.637 -12.193,-10.097 -19.646,-13.372c-7.461,-3.274 -15.195,-4.911 -23.194,-4.911c-8.007,0 -15.648,1.637 -22.921,4.911c-7.282,3.275 -13.738,7.735 -19.374,13.372c-5.645,5.645 -10.096,12.193 -13.371,19.646c-3.274,7.461 -4.911,15.195 -4.911,23.194c-0,8.374 1.722,16.288 5.184,23.74c3.454,7.461 7.999,13.916 13.644,19.374c5.636,5.457 12.091,9.823 19.374,13.098c7.273,3.274 14.734,4.911 22.375,4.911m15.826,-192.647c16.372,1.825 31.739,6.549 46.116,14.189c14.368,7.641 26.741,17.379 37.11,29.198c10.369,11.827 18.555,25.292 24.558,40.385c6.004,15.102 9.005,31.022 9.005,47.752l-0,96.597c-0,9.823 -3.641,18.196 -10.915,25.104c-7.282,6.915 -15.468,10.369 -24.558,10.369c-12.74,0 -22.921,-5.816 -30.562,-17.464c-1.825,0.734 -3.462,1.552 -4.911,2.456c-1.459,0.912 -2.917,1.731 -4.366,2.455c-8.732,4.009 -17.652,7.095 -26.742,9.278c-9.465,2.183 -19.467,3.275 -30.015,3.275c-27.287,0 -51.667,-7.368 -73.13,-22.103c-21.471,-14.735 -37.477,-33.742 -48.025,-57.03c-3.641,-8.365 -6.464,-16.918 -8.459,-25.65c-2.004,-8.732 -3.002,-17.822 -3.002,-27.287c-0,-9.456 0.998,-18.555 3.002,-27.287c1.995,-8.732 4.818,-17.276 8.459,-25.65c10.548,-23.646 26.554,-42.746 48.025,-57.303c21.463,-14.547 45.843,-21.83 73.13,-21.83l7.913,0c2.362,0 4.818,0.188 7.367,0.546" style="fill:#fff;fill-rule:nonzero;"/><path d="M1297.39,0.467c10.181,0 18.734,3.547 25.65,10.642c6.907,7.094 10.727,15.921 11.46,26.468l-0,43.659l93.868,0c10.548,0 19.101,3.642 25.65,10.915c6.549,7.283 9.823,15.827 9.823,25.651c-0,9.465 -3.641,17.924 -10.915,25.376c-7.282,7.462 -15.468,11.188 -24.558,11.188l-93.868,0l-0,60.031c-0,8.374 1.544,16.288 4.639,23.74c3.087,7.462 7.368,14.105 12.825,19.92c5.457,5.824 11.913,10.369 19.374,13.643c7.453,3.275 15.553,4.913 24.285,4.913c9.457,0 17.549,-1.271 24.286,-3.821c6.728,-2.541 12.637,-6.361 17.736,-11.461c7.641,-6.548 16.1,-9.908 25.378,-10.096c9.277,-0.179 17.915,3.369 25.922,10.643c3.633,3.274 6.362,7.009 8.187,11.187c1.816,4.187 2.813,8.553 3.001,13.098c0.179,4.554 -0.46,9.005 -1.91,13.37c-1.458,4.366 -3.82,8.186 -7.095,11.461c-12.74,12.373 -26.741,21.829 -42.022,28.378c-15.281,6.549 -31.653,9.824 -49.117,9.824c-18.922,0 -36.752,-3.181 -53.482,-9.55c-16.739,-6.362 -31.474,-15.46 -44.206,-27.288c-12.739,-11.819 -22.835,-26.008 -30.288,-42.568c-7.461,-16.551 -11.375,-35.012 -11.734,-55.393l-0,-179.548c-0,-9.823 3.727,-18.01 11.188,-24.558c7.453,-6.549 16.099,-9.824 25.923,-9.824" style="fill:#fff;fill-rule:nonzero;"/></g></svg>