<?xml version="1.0" encoding="UTF-8"?>
<svg id="Layer_1" data-name="Layer 1" xmlns="http://www.w3.org/2000/svg" viewBox="0 0 1920 1920">
  <defs>
    <style>
      .cls-1 {
        stroke-width: 34.08px;
      }

      .cls-1, .cls-2 {
        fill: none;
        stroke: #fff;
        stroke-linecap: round;
        stroke-linejoin: round;
      }

      .cls-3 {
        fill: #fff;
      }

      .cls-2 {
        stroke-width: 42px;
      }

      .cls-4 {
        fill: #5086ff;
      }
    </style>
  </defs>
  <rect class="cls-4" width="1920" height="1920"/>
  <path class="cls-3" d="m721.72,1445.75c200.08-139.24,198.23-407.15,51.98-554.29-139.17-140.01-365.31-142.62-509.36-2.28-70.14,68.32-106.76,153.1-107.9,250.97-1.49,128.58,54.91,229.06,157.53,305.48C116.73,1542.94,10.91,1698.79-.12,1919.3l931.06.62,104.06.07c-11.48-221.8-117.48-377.56-313.28-474.25Zm-462.53-300.27c.56-143.02,116.03-257.69,259.22-257.42,142.06.28,256.85,115.48,256.92,257.84.07,143.34-114.6,257.9-258.16,257.87-143.16-.02-258.54-115.54-257.98-258.29Z"/>
  <path class="cls-3" d="m1041.96,991.72c19.59-45.5,48.67-87.24,86.44-124.03,38.02-37.04,82.09-65.58,129.81-84.65-51.53-52.03-95.92-89.61-127.05-104.98,167.21-116.37,165.66-340.27,43.44-463.24-116.3-117.01-305.3-119.19-425.68-1.91-58.62,57.1-89.22,127.96-90.18,209.75-1.24,107.45,45.89,191.43,131.65,255.29-31.3,15.45-75.78,53.01-127.37,104.97.95.38,1.9.76,2.85,1.15,48.45,19.78,91.89,48.8,129.1,86.24,40,40.24,71.31,90.5,90.55,145.34,18.96,54.03,26.26,112.59,21.13,169.34-9.08,100.31-54.84,189.65-130.2,255.95,75.93,43.59,137.44,97.39,183.47,160.44,25.18-34.38,55.04-66.16,89.03-94.68,28.67-24.05,60.86-46.29,96.08-66.39-90.07-80.61-134.97-181.51-133.59-300.51.62-52.64,10.88-102.46,30.52-148.08Zm-81.74-348.74c-119.65-.02-216.07-96.56-215.61-215.86.47-119.53,96.97-215.36,216.64-215.13,118.72.23,214.65,96.51,214.71,215.48.06,119.8-95.77,215.53-215.74,215.51Z"/>
  <path class="cls-3" d="m1606.72,1445.75c200.08-139.24,198.23-407.15,51.98-554.29-139.17-140.01-365.31-142.62-509.36-2.28-70.14,68.32-106.76,153.1-107.9,250.97-1.49,128.58,54.91,229.06,157.53,305.48-197.24,97.32-303.06,253.17-314.09,473.67l931.06.62,104.06.07c-11.48-221.8-117.48-377.56-313.28-474.25Zm-462.53-300.27c.56-143.02,116.03-257.69,259.22-257.42,142.06.28,256.85,115.48,256.92,257.84.07,143.34-114.6,257.9-258.16,257.87-143.16-.02-258.54-115.54-257.98-258.29Z"/>
  <path class="cls-2" d="m370.5,1242.5s144.5,178.5,288.22,0"/>
  <path class="cls-2" d="m1258.5,1242.5s144.5,178.5,288.22,0"/>
  <path class="cls-1" d="m857.28,490s102.61,126.75,204.66,0"/>
</svg>